<svg width="1024" height="1024" viewBox="0 0 1024 1024" xmlns="http://www.w3.org/2000/svg">
  <defs>
    <linearGradient id="brand" x1="0" y1="0" x2="1" y2="1">
      <stop offset="0%" stop-color="#F43F5E"/>
      <stop offset="55%" stop-color="#C13BC0"/>
      <stop offset="100%" stop-color="#A855F7"/>
    </linearGradient>
    <linearGradient id="amber" x1="0" y1="0" x2="0" y2="1">
      <stop offset="0%" stop-color="#FBBF24"/>
      <stop offset="100%" stop-color="#F59E0B"/>
    </linearGradient>
    <radialGradient id="bg" cx="50%" cy="34%" r="80%">
      <stop offset="0%" stop-color="#1A1330"/>
      <stop offset="55%" stop-color="#13131E"/>
      <stop offset="100%" stop-color="#07070F"/>
    </radialGradient>
    <linearGradient id="border" x1="0" y1="0" x2="1" y2="1">
      <stop offset="0%" stop-color="#A855F7" stop-opacity="0.85"/>
      <stop offset="100%" stop-color="#F43F5E" stop-opacity="0.5"/>
    </linearGradient>
  </defs>
  <rect x="32" y="32" width="960" height="960" rx="220" fill="url(#bg)"/>
  <rect x="46" y="46" width="932" height="932" rx="208" fill="none" stroke="url(#border)" stroke-width="6"/>
  <path d="M 182 548 Q 512 232 842 548" fill="none" stroke="url(#amber)" stroke-width="14" stroke-linecap="round" opacity="0.9"/>
  <circle cx="182" cy="548" r="15" fill="url(#amber)"/>
  <circle cx="842" cy="548" r="15" fill="url(#amber)"/>
  <g fill="url(#brand)">
    <rect x="147" y="548" width="70" height="152" rx="35"/>
    <rect x="257" y="470" width="70" height="230" rx="35"/>
    <rect x="367" y="382" width="70" height="318" rx="35"/>
    <rect x="477" y="330" width="70" height="370" rx="35"/>
    <rect x="587" y="382" width="70" height="318" rx="35"/>
    <rect x="697" y="470" width="70" height="230" rx="35"/>
    <rect x="807" y="548" width="70" height="152" rx="35"/>
  </g>
  <rect x="137" y="712" width="750" height="28" rx="14" fill="url(#amber)"/>
  <rect x="300" y="740" width="26" height="60" rx="10" fill="url(#amber)" opacity="0.85"/>
  <rect x="499" y="740" width="26" height="60" rx="10" fill="url(#amber)" opacity="0.85"/>
  <rect x="698" y="740" width="26" height="60" rx="10" fill="url(#amber)" opacity="0.85"/>
</svg>
