<svg width="1680" height="520" viewBox="0 0 1680 520" xmlns="http://www.w3.org/2000/svg">
  <!-- Uygulama içi kullanım için şeffaf zeminli wordmark (arka plan dikdörtgeni yok) -->
  <defs>
    <linearGradient id="brand" x1="0" y1="0" x2="1" y2="1">
      <stop offset="0%" stop-color="#F43F5E"/>
      <stop offset="55%" stop-color="#C13BC0"/>
      <stop offset="100%" stop-color="#A855F7"/>
    </linearGradient>
    <linearGradient id="amber" x1="0" y1="0" x2="0" y2="1">
      <stop offset="0%" stop-color="#FBBF24"/>
      <stop offset="100%" stop-color="#F59E0B"/>
    </linearGradient>
    <linearGradient id="word" x1="0" y1="0" x2="1" y2="0">
      <stop offset="0%" stop-color="#F43F5E"/>
      <stop offset="100%" stop-color="#A855F7"/>
    </linearGradient>
  </defs>
  <g transform="translate(70,70) scale(0.371)">
    <rect x="0" y="0" width="960" height="960" rx="210" fill="#0D0D18"/>
    <rect x="12" y="12" width="936" height="936" rx="202" fill="none" stroke="#A855F7" stroke-opacity="0.5" stroke-width="6"/>
    <path d="M 182 548 Q 512 232 842 548" fill="none" stroke="url(#amber)" stroke-width="16" stroke-linecap="round" opacity="0.9" transform="translate(-32,-32)"/>
    <g fill="url(#brand)" transform="translate(-32,-32)">
      <rect x="147" y="548" width="70" height="152" rx="35"/>
      <rect x="257" y="470" width="70" height="230" rx="35"/>
      <rect x="367" y="382" width="70" height="318" rx="35"/>
      <rect x="477" y="330" width="70" height="370" rx="35"/>
      <rect x="587" y="382" width="70" height="318" rx="35"/>
      <rect x="697" y="470" width="70" height="230" rx="35"/>
      <rect x="807" y="548" width="70" height="152" rx="35"/>
    </g>
    <g transform="translate(-32,-32)">
      <rect x="137" y="712" width="750" height="28" rx="14" fill="url(#amber)"/>
      <rect x="300" y="740" width="26" height="60" rx="10" fill="url(#amber)" opacity="0.85"/>
      <rect x="499" y="740" width="26" height="60" rx="10" fill="url(#amber)" opacity="0.85"/>
      <rect x="698" y="740" width="26" height="60" rx="10" fill="url(#amber)" opacity="0.85"/>
    </g>
  </g>
  <text x="470" y="300" font-family="'Montserrat','Poppins','Segoe UI',Arial,sans-serif" font-size="190" font-weight="800" letter-spacing="-4">
    <tspan fill="url(#word)">Gig</tspan><tspan fill="#EEEEF5">Bridge</tspan>
  </text>
  <text x="478" y="408" font-family="'Montserrat','Poppins','Segoe UI',Arial,sans-serif" font-size="44" font-weight="500" letter-spacing="13" fill="#9090B0">CANLI MÜZİK KÖPRÜSÜ</text>
</svg>
